<?xml version="1.0" encoding="UTF-8"?>
<svg id="_Слой_1" data-name="Слой 1" xmlns="http://www.w3.org/2000/svg" viewBox="0 0 203.33 83.89">
  <defs>
    <style>
      .cls-1 {
        font-family: NotoSansArmenianExtraCondensed-Light, 'Noto Sans Armenian ExtraCondensed';
        font-size: 9px;
        font-weight: 300;
      }

      .cls-2 {
        stroke-width: .3px;
      }

      .cls-2, .cls-3 {
        fill: none;
        stroke: #bd206e;
        stroke-miterlimit: 10;
      }

      .cls-4 {
        letter-spacing: -.04em;
      }

      .cls-3 {
        stroke-width: .2px;
      }

      .cls-5 {
        fill: #bd206e;
        font-family: Arizonia-Regular, Arizonia;
        font-size: 48px;
      }
    </style>
  </defs>
  <path class="cls-2" d="M203.01,16.64c-.09-.78-.36-1.59-.24-2.33,.37-2.2,.48-4.38,.23-6.59-.22-1.96-.44-3.91-.84-5.84-.1-.49-.29-.96-.62-1.35-.41-.47-.8-.55-1.2,.03-.33,.47-.5,.98-.59,1.53-.34,2.02-.7,4.02-1.39,5.97-1.41,3.97-3.71,7.28-6.91,10-3.66,3.11-8.09,4.76-12.42,6.59-3.97,1.68-8.04,3.12-11.82,5.36-1.92,1.16-3.75,2.35-5.33,3.88-2.41,2.35-3.7,5.2-3.75,8.58,0,.09,.01,.18,.02,.28,.12-.34,.42-.62,.9-.62,.06,0,.1,.02,.15,.03,.16-.16,.37-.27,.66-.27,.02,0,.03,0,.05,0,.12-.15,.31-.24,.53-.28,.14-.31,.42-.56,.86-.56,0,0,0,0,.01,0,.1-.23,.29-.42,.56-.51,.11-.37,.41-.67,.91-.67,.15,0,.28,.03,.39,.08,.17-.31,.33-.63,.48-.95,1.47-3.26,3.65-5.88,6.78-7.66,3.09-1.75,6.29-3.28,9.53-4.75,3.8-1.73,7.73-3.2,11.4-5.22,3.39-1.87,5.97-4.52,7.63-8.04,.74-1.57,1.22-3.21,1.62-4.9,.13,1.92,.08,3.82-.16,5.73-.58,4.65-2.69,8.4-6.28,11.37-2.5,2.07-5.22,3.81-7.99,5.49-.6,.37-1.27,.67-1.71,1.25-.24,.32-.63,.62-.27,1.11,.32,.44,.71,.21,1.07,.1,4.93-1.47,9.29-3.89,12.89-7.63,.16-.17,.36-.31,.54-.47-1.51,3.89-5.02,6.06-7.71,9.06,.74,.34,1.32,.11,1.87-.03,1.52-.38,2.75-1.29,3.95-2.23,.27-.21,.52-.52,.99-.42-.06,.15-.08,.25-.14,.33-2.43,3.53-5.75,5.81-9.84,6.96-3.08,.87-6.27,1.28-9.38,2.03-1.58,.38-3.23,.41-4.79,.93-.56,.19-1.13,.38-1.57,1.12,3.55,1.37,7.11,.47,10.71,.5-.55,2.67-1.76,4.85-4.22,6.08-2.67,1.34-5.5,1.65-8.43,.97-.58-.13-1.17-.21-1.77-.26-.1,.16-.24,.28-.43,.35-.05,.23-.16,.44-.35,.58,.06,.02,.11,.05,.17,.07,2.64,1,5.37,1.26,8.14,.79,4.9-.83,8.37-3.36,9.36-8.46,.13-.66,.39-.99,1.03-1.19,3.88-1.19,7.51-2.88,10.59-5.58,2.91-2.55,4.6-5.7,4.67-9.63,.02-.85,.14-1.7,.5-2.46,1.27-2.65,1.26-5.44,.95-8.26Z"/>
  <path class="cls-3" d="M44.94,42.75c.07,0,.13,.03,.2,.04,.02-.13,.04-.25,.03-.38-.05-3.37-1.34-6.23-3.75-8.58-1.58-1.53-3.41-2.71-5.33-3.88-3.78-2.24-7.86-3.67-11.82-5.36-4.33-1.84-8.76-3.48-12.42-6.59-3.2-2.72-5.5-6.04-6.91-10-.69-1.95-1.05-3.95-1.39-5.97-.09-.54-.27-1.06-.59-1.53C2.55-.06,2.16,0,1.75,.48c-.34,.39-.52,.86-.62,1.35-.4,1.93-.62,3.89-.84,5.84-.25,2.21-.15,4.39,.23,6.59,.13,.74-.15,1.55-.24,2.33-.31,2.83-.32,5.61,.95,8.26,.36,.76,.48,1.6,.5,2.46,.07,3.93,1.76,7.08,4.67,9.63,3.09,2.7,6.71,4.39,10.59,5.58,.64,.2,.9,.53,1.03,1.19,1,5.11,4.46,7.63,9.36,8.46,2.17,.37,4.32,.26,6.42-.28-.15-.25-.19-.56-.12-.84-.06-.07-.12-.14-.15-.24-.04-.08-.04-.16-.05-.25-.11,.02-.23,.04-.34,.07-2.94,.68-5.77,.37-8.43-.97-2.45-1.23-3.66-3.42-4.22-6.08,3.59-.03,7.16,.87,10.71-.5-.44-.74-1.01-.93-1.57-1.12-1.55-.52-3.2-.54-4.79-.93-3.11-.75-6.3-1.17-9.38-2.03-4.09-1.15-7.41-3.43-9.84-6.96-.06-.08-.08-.18-.14-.33,.47-.09,.72,.21,.99,.42,1.21,.95,2.44,1.86,3.95,2.23,.55,.14,1.14,.37,1.87,.03-2.69-3.01-6.19-5.18-7.71-9.06,.18,.16,.37,.3,.54,.47,3.59,3.73,7.96,6.15,12.89,7.63,.36,.11,.74,.34,1.07-.1,.36-.48-.03-.79-.27-1.11-.44-.58-1.1-.89-1.71-1.25-2.77-1.68-5.49-3.43-7.99-5.49-3.59-2.97-5.7-6.72-6.28-11.37-.24-1.91-.29-3.81-.16-5.73,.39,1.68,.88,3.33,1.62,4.9,1.66,3.52,4.25,6.17,7.63,8.04,3.67,2.02,7.59,3.49,11.4,5.22,3.23,1.47,6.44,2.99,9.53,4.75,3.14,1.78,5.31,4.41,6.78,7.66,.67,1.49,1.59,2.85,2.44,4.23,.06,.09,.12,.18,.19,.25,.11,.11,.22,.21,.34,.3,.14-.3,.42-.53,.85-.53,.09,0,.16,.03,.24,.04,.13-.08,.29-.13,.47-.13,.16-.22,.41-.37,.76-.37Z"/>
  <text class="cls-5" transform="translate(31.68 52.49)"><tspan x="0" y="0">Angela</tspan></text>
  <text class="cls-1" transform="translate(65.77 81.68)"><tspan x="0" y="0">ԿԱՆԱՑԻ Հ</tspan><tspan class="cls-4" x="32.06" y="0">Ա</tspan><tspan x="36.78" y="0">ԳՈՒՍՏԻ ՍՐԱՀ</tspan></text>
</svg>