<?xml version="1.0" standalone="no"?>
<!DOCTYPE svg PUBLIC "-//W3C//DTD SVG 20010904//EN"
 "http://www.w3.org/TR/2001/REC-SVG-20010904/DTD/svg10.dtd">
<svg version="1.0" xmlns="http://www.w3.org/2000/svg"
 width="16.000000pt" height="16.000000pt" viewBox="0 0 16.000000 16.000000"
 preserveAspectRatio="xMidYMid meet">

<g transform="translate(0.000000,16.000000) scale(0.100000,-0.100000)"
fill="#000000" stroke="none">
<path d="M30 140 c0 -6 7 -10 15 -10 19 0 19 6 0 14 -8 3 -15 1 -15 -4z"/>
<path d="M95 130 c-16 -11 -25 -20 -18 -20 6 0 15 5 18 10 9 15 25 12 25 -5 0
-8 -8 -15 -17 -15 -15 0 -16 -2 -3 -10 18 -11 33 10 28 40 -3 20 -3 20 -33 0z"/>
<path d="M31 115 c-1 -21 14 -34 29 -25 13 8 13 10 -2 10 -9 0 -19 6 -21 13
-3 6 -6 8 -6 2z"/>
<path d="M50 31 c31 -25 34 -26 51 -4 13 16 12 17 -3 5 -14 -11 -21 -11 -45 4
l-28 16 25 -21z"/>
</g>
</svg>
